<svg xmlns="http://www.w3.org/2000/svg" xmlns:xlink="http://www.w3.org/1999/xlink" width="30" height="" viewBox="0 0 38.849 41.976">
  <defs>
    <clipPath id="clip-path">
      <rect width="38.849" height="41.976" fill="none"/>
    </clipPath>
  </defs>
  <g id="paintbrush" clip-path="url(#clip-path)">
    <g id="paintbrush-2" data-name="paintbrush" transform="translate(25.356 0.723) rotate(40)">
      <g id="handle" transform="translate(1.959 16.446)">
        <path id="Union_1" data-name="Union 1" d="M1776.18-1427.625a2.576,2.576,0,0,0,.82-.553,2.573,2.573,0,0,0,.553-.82,2.565,2.565,0,0,0,.2-1v-15.832h2.728a1.721,1.721,0,0,0,1.721-1.721V-1451h-14.116v3.442a1.721,1.721,0,0,0,1.721,1.721h2.784V-1430a2.565,2.565,0,0,0,.2,1,2.574,2.574,0,0,0,.553.82,2.571,2.571,0,0,0,.82.553,2.566,2.566,0,0,0,1,.2A2.569,2.569,0,0,0,1776.18-1427.625Zm-.57-5.836a1.257,1.257,0,0,1,.4.27,1.261,1.261,0,0,1,.271.4,1.262,1.262,0,0,1,.1.491,1.262,1.262,0,0,1-.1.491,1.26,1.26,0,0,1-.271.4,1.257,1.257,0,0,1-.4.27,1.254,1.254,0,0,1-.491.1,1.256,1.256,0,0,1-.491-.1,1.259,1.259,0,0,1-.4-.27,1.255,1.255,0,0,1-.27-.4,1.254,1.254,0,0,1-.1-.491,1.254,1.254,0,0,1,.1-.491,1.255,1.255,0,0,1,.27-.4,1.259,1.259,0,0,1,.4-.27,1.256,1.256,0,0,1,.491-.1,1.256,1.256,0,0,1,.491.1Z" transform="translate(-1768.089 1450.997)" fill="#f2c506"/>
      </g>
      <path id="brush" d="M10.307-23.507c-.548-.835-4.113-3.017-8.473-3.728s-6.1-2.926-6.629-1.99-1.255,5.9-.221,10.167.5,5.878,1.1,6.324c.31.234,3.854.268,7.376.286,2.98.015,5.964.042,6.278-.286.659-.689.833-2.143.408-5.087S10.856-22.672,10.307-23.507Z" transform="translate(6.022 28.104)" fill="#f2c506"/>
      <rect id="band" width="14.255" height="1.721" rx="0.86" transform="translate(1.874 15.988)" fill="#f2c506"/>
    </g>
  </g>
</svg>
